<svg width="80" height="40" viewBox="0 0 80 40" fill="none" xmlns="http://www.w3.org/2000/svg">
<rect x="30.001" y="11.0001" width="30" height="3" transform="rotate(-180 30.001 11.0001)" fill="white"/>
<rect x="27.001" y="11.0001" width="11" height="3" transform="rotate(-90 27.001 11.0001)" fill="white"/>
<rect x="50.001" y="29.0002" width="30" height="3" fill="white"/>
<rect x="53.001" y="29.0002" width="11" height="3" transform="rotate(90 53.001 29.0002)" fill="white"/>
<rect width="30" height="3" transform="matrix(1 1.74846e-07 1.74846e-07 -1 50.001 11.0001)" fill="white"/>
<rect width="11" height="3" transform="matrix(1.31134e-07 -1 -1 -1.31134e-07 53.001 11.0001)" fill="white"/>
<rect width="30" height="3" transform="matrix(-1 -8.74228e-08 -8.74228e-08 1 30 29.0002)" fill="white"/>
<rect width="11" height="3" transform="matrix(-4.37114e-08 1 1 4.37114e-08 27 29.0002)" fill="white"/>
</svg>
