<?xml version="1.0" encoding="utf-8"?>
<!-- Generator: Adobe Illustrator 22.0.1, SVG Export Plug-In . SVG Version: 6.00 Build 0)  -->
<svg fill="#fff" version="1.1" id="Layer_1" xmlns="http://www.w3.org/2000/svg" xmlns:xlink="http://www.w3.org/1999/xlink" x="0px" y="0px"
	 viewBox="0 0 64 64" style="enable-background:new 0 0 64 64;" xml:space="preserve">
<path d="M25.8,29.9c3.5-1.7,5.4-4.2,5.4-8.2c0-7.8-5.8-9.8-12.6-9.8H0v39.4h19.1c7.2,0,13.9-3.4,13.9-11.4
	C33,34.9,30.6,31.3,25.8,29.9L25.8,29.9z M8.7,18.7h8.1c3.1,0,5.9,0.9,5.9,4.5c0,3.3-2.2,4.7-5.3,4.7H8.7
	C8.7,27.8,8.7,18.7,8.7,18.7z M17.9,44.6H8.7V33.8h9.4c3.8,0,6.2,1.6,6.2,5.6C24.3,43.4,21.4,44.6,17.9,44.6L17.9,44.6z M57.7,17.9
	h-16V14h16V17.9L57.7,17.9z M64,37.5C64,29,59.1,22,50.1,22c-8.7,0-14.6,6.5-14.6,15.1c0,8.9,5.6,15,14.6,15
	c6.8,0,11.2-3.1,13.3-9.6h-6.9c-0.7,2.4-3.8,3.7-6.2,3.7c-4.6,0-7-2.7-7-7.3h20.6C64,38.5,64,38,64,37.5z M43.4,34
	c0.3-3.7,2.7-6.1,6.5-6.1c3.9,0,5.9,2.3,6.2,6.1H43.4z"/>
</svg>
