<?xml version="1.0" encoding="utf-8"?>
<!-- Generator: Adobe Illustrator 22.0.1, SVG Export Plug-In . SVG Version: 6.00 Build 0)  -->
<svg fill="#fff" version="1.1" id="Layer_1" xmlns="http://www.w3.org/2000/svg" xmlns:xlink="http://www.w3.org/1999/xlink" x="0px" y="0px"
	 viewBox="0 0 64 64" style="enable-background:new 0 0 64 64;" xml:space="preserve">
<path d="M20.1,58.1c24.2,0,37.4-20,37.4-37.4c0-0.5,0-1.1-0.1-1.7c2.6-1.9,4.8-4.2,6.5-6.8c-2.4,1.1-4.9,1.8-7.6,2.1
	c2.7-1.6,4.8-4.2,5.8-7.3c-2.6,1.5-5.3,2.6-8.4,3.2c-2.4-2.6-5.8-4.2-9.6-4.2c-7.3,0-13.2,5.9-13.2,13.2c0,1,0.1,2,0.3,3
	C20.6,21.6,10.9,16.4,4.4,8.4c-1.1,2-1.8,4.2-1.8,6.6c0,4.6,2.3,8.6,5.9,10.9c-2.2-0.1-4.2-0.7-5.9-1.6c0,0.1,0,0.1,0,0.1
	c0,6.3,4.5,11.7,10.5,12.9c-1.1,0.3-2.3,0.5-3.4,0.5c-0.9,0-1.7-0.1-2.5-0.3c1.7,5.2,6.5,9,12.3,9.1c-4.5,3.5-10.2,5.6-16.3,5.6
	C2,52.3,1,52.2,0,52.1C5.7,55.9,12.7,58.1,20.1,58.1"/>
</svg>
