<?xml version="1.0" encoding="utf-8"?>
<!-- Generator: Adobe Illustrator 22.0.1, SVG Export Plug-In . SVG Version: 6.00 Build 0)  -->
<svg fill="#fff" version="1.1" id="Layer_1" xmlns="http://www.w3.org/2000/svg" xmlns:xlink="http://www.w3.org/1999/xlink" x="0px" y="0px"
	 viewBox="0 0 64 64" style="enable-background:new 0 0 64 64;" xml:space="preserve">
<path d="M64,17.1c-0.3,6.3-4.6,14.8-13.1,25.7c-8.7,11.3-16.1,17-22.1,17c-3.7,0-6.9-3.4-9.5-10.4c-1.8-6.3-3.4-12.7-5.2-19
	c-1.9-6.9-4-10.4-6.2-10.4c-0.5,0-2.2,1-5.1,3L0,19.2c3.2-2.8,6.3-5.6,9.4-8.4c4.2-3.6,7.3-5.6,9.5-5.7c5-0.5,8,3,9.2,10.2
	c1.2,7.9,2.1,12.8,2.6,14.7c1.4,6.5,3,9.8,4.7,9.8c1.3,0,3.4-2.1,6.1-6.3c2.7-4.2,4.1-7.5,4.3-9.7c0.4-3.6-1.1-5.5-4.3-5.5
	c-1.5,0-3.1,0.3-4.7,1.1C39.8,9,45.8,4,54.7,4.3C61.2,4.4,64.3,8.7,64,17.1z"/>
</svg>
