<?xml version="1.0" standalone="no"?>
<!DOCTYPE svg PUBLIC "-//W3C//DTD SVG 20010904//EN"
 "http://www.w3.org/TR/2001/REC-SVG-20010904/DTD/svg10.dtd">
<svg version="1.0" xmlns="http://www.w3.org/2000/svg"
 width="32.000000pt" height="32.000000pt" viewBox="0 0 32.000000 32.000000"
 preserveAspectRatio="xMidYMid meet">

<g transform="translate(0.000000,32.000000) scale(0.100000,-0.100000)"
fill="#000000" stroke="none">
<path d="M82 193 c-7 -49 -14 -99 -17 -113 -12 -56 8 -53 108 15 54 36 97 73
97 80 0 18 -34 40 -75 50 -16 3 -44 17 -62 31 -17 13 -33 24 -36 24 -2 0 -9
-39 -15 -87z m83 1 c20 -15 20 -16 -10 -39 -16 -13 -30 -23 -31 -22 -4 6 9 77
15 77 3 0 15 -8 26 -16z"/>
</g>
</svg>
