<svg xmlns="http://www.w3.org/2000/svg" version="1.0" width="32" height="32" preserveAspectRatio="xMidYMid meet" style=""><rect id="backgroundrect" width="100%" height="100%" x="0" y="0" fill="none" stroke="none"/>


<g class="currentLayer" style=""><title>Layer 1</title><g transform="translate(0,32) scale(0.10000000149011612,-0.10000000149011612) " fill="#ffffff" stroke="none" id="svg_1" class="" fill-opacity="1">
<path d="M82 193 c-7 -49 -14 -99 -17 -113 -12 -56 8 -53 108 15 54 36 97 73 97 80 0 18 -34 40 -75 50 -16 3 -44 17 -62 31 -17 13 -33 24 -36 24 -2 0 -9 -39 -15 -87z m83 1 c20 -15 20 -16 -10 -39 -16 -13 -30 -23 -31 -22 -4 6 9 77 15 77 3 0 15 -8 26 -16z" id="svg_2" fill="#ffffff" fill-opacity="1"/>
</g></g></svg>